<?xml version="1.0" encoding="UTF-8" standalone="no"?>
<!-- Created with Inkscape (http://www.inkscape.org/) -->

<svg
   xmlns:dc="http://purl.org/dc/elements/1.1/"
   xmlns:cc="http://creativecommons.org/ns#"
   xmlns:rdf="http://www.w3.org/1999/02/22-rdf-syntax-ns#"
   xmlns:svg="http://www.w3.org/2000/svg"
   xmlns="http://www.w3.org/2000/svg"
   xmlns:sodipodi="http://sodipodi.sourceforge.net/DTD/sodipodi-0.dtd"
   xmlns:inkscape="http://www.inkscape.org/namespaces/inkscape"
   width="130.07315mm"
   height="33.725258mm"
   viewBox="0 0 130.07315 33.725258"
   version="1.1"
   id="svg8"
   inkscape:version="0.92.1 r15371"
   sodipodi:docname="logo.svg">
  <defs
     id="defs2" />
  <sodipodi:namedview
     id="base"
     pagecolor="#ffffff"
     bordercolor="#666666"
     borderopacity="1.0"
     inkscape:pageopacity="0.0"
     inkscape:pageshadow="2"
     inkscape:zoom="1.4"
     inkscape:cx="242.25408"
     inkscape:cy="43.220294"
     inkscape:document-units="mm"
     inkscape:current-layer="layer1"
     showgrid="false"
     fit-margin-top="0"
     fit-margin-left="0"
     fit-margin-right="0"
     fit-margin-bottom="0"
     inkscape:window-width="2560"
     inkscape:window-height="1377"
     inkscape:window-x="-8"
     inkscape:window-y="-8"
     inkscape:window-maximized="1" />
  <metadata
     id="metadata5">
    <rdf:RDF>
      <cc:Work
         rdf:about="">
        <dc:format>image/svg+xml</dc:format>
        <dc:type
           rdf:resource="http://purl.org/dc/dcmitype/StillImage" />
        <dc:title></dc:title>
      </cc:Work>
    </rdf:RDF>
  </metadata>
  <g
     inkscape:label="Layer 1"
     inkscape:groupmode="layer"
     id="layer1"
     transform="translate(-32.399258,-69.080832)">
    <path
       style="fill:#009518;fill-opacity:1;stroke-width:0.26458332"
       d="m 40.323194,102.34307 c -0.595053,-0.50799 -1.748416,-4.025076 -4.143039,-12.63385 -0.809563,-2.910417 -2.034487,-6.928668 -2.722052,-8.929447 -1.174292,-3.417132 -1.226045,-3.680631 -0.853243,-4.344262 0.820468,-1.460523 6.87335,-3.81577 13.364188,-5.200161 8.546811,-1.822896 11.798975,-2.368218 12.424296,-2.083302 1.245119,0.567313 2.467732,5.138919 4.771276,17.84078 1.750862,9.654335 1.764871,9.366847 -0.523158,10.735375 -1.499137,0.896675 -2.300888,1.090771 -7.282436,1.763019 -1.67349,0.225831 -5.423473,1.064058 -8.333296,1.862738 -2.909824,0.79867 -5.486243,1.45213 -5.725376,1.45213 -0.239133,0 -0.678855,-0.20836 -0.97716,-0.46302 z m 4.894404,-2.18923 c 3.355866,-1.141585 6.360429,-1.816704 11.186601,-2.513606 3.314946,-0.478676 5.50301,-1.173615 6.232215,-1.979377 0.368006,-0.406644 0.43706,-0.793586 0.317719,-1.780392 -0.14139,-1.169146 -4.279582,-21.608876 -4.578066,-22.612398 -0.07353,-0.247218 -0.359783,-0.521245 -0.636117,-0.60895 -0.51751,-0.164251 -7.435682,1.162194 -13.169231,2.524983 -3.284764,0.780745 -7.94099,2.45485 -9.518463,3.422279 -1.106689,0.678708 -1.126927,1.545164 -0.102471,4.387095 0.416584,1.155639 1.926737,6.013827 3.355896,10.795972 2.391735,8.003047 2.929767,9.429144 3.557378,9.429144 0.123513,0 1.633055,-0.47914 3.354539,-1.06475 z m -4.155474,-5.968639 c -0.875291,-2.041972 -0.753584,-2.408851 0.964825,-2.908406 1.24635,-0.362324 1.53856,-0.374125 1.82091,-0.07354 0.456514,0.486002 1.270273,3.060728 1.069855,3.385011 -0.19077,0.308672 -1.871473,0.805919 -2.731111,0.808016 -0.466892,0.0011 -0.723177,-0.274884 -1.124479,-1.211084 z m 2.464218,-0.04088 c 0.338485,-0.09718 0.423287,-0.292854 0.302333,-0.697586 -0.296805,-0.993158 -0.735884,-1.275197 -1.5207,-0.976811 -0.783153,0.297755 -0.829671,0.454816 -0.439021,1.482303 0.200655,0.527762 0.384022,0.657896 0.727604,0.516373 0.252639,-0.104063 0.671042,-0.249989 0.929784,-0.324279 z m 3.941599,-0.93959 C 47.100143,92.761562 46.98,90.704184 47.303586,90.390254 c 0.137628,-0.133521 2.274294,-0.663097 4.748148,-1.176835 2.473854,-0.513738 5.181893,-1.083278 6.017863,-1.265645 0.965076,-0.21053 1.61053,-0.239302 1.768076,-0.07881 0.136472,0.139019 0.285932,0.840376 0.332136,1.558572 0.107892,1.677078 0.111308,1.675359 -6.053002,3.046971 -5.163838,1.148998 -6.206299,1.263489 -6.648866,0.730228 z m 6.171293,-1.784268 c 1.455209,-0.40253 3.330443,-0.88188 4.167188,-1.065222 1.15816,-0.25377 1.521354,-0.4459 1.521354,-0.804799 0,-0.259297 -0.09609,-0.530838 -0.213543,-0.603425 -0.117446,-0.07259 -2.67729,0.466187 -5.68854,1.197275 -4.841615,1.175474 -5.475,1.390095 -5.475,1.855191 0,0.485515 0.116937,0.511602 1.521354,0.339396 0.836745,-0.1026 2.711979,-0.515887 4.167187,-0.918416 z m -13.549989,-3.0904 c -0.271716,-0.271715 -0.660688,-1.188742 -0.864383,-2.037837 -0.343809,-1.433159 -0.335818,-1.569063 0.111492,-1.896144 0.265015,-0.193783 1.127118,-0.486292 1.915786,-0.650018 1.906183,-0.395723 2.54818,0.0021 2.992548,1.85445 0.396179,1.651462 0.216959,1.924257 -1.67217,2.545244 -0.752785,0.247452 -1.508322,0.501308 -1.678972,0.564124 -0.170649,0.06282 -0.532585,-0.108103 -0.804301,-0.379819 z m 2.423307,-1.243699 c 0.857456,-0.358268 0.885717,-0.414444 0.676096,-1.343878 -0.120321,-0.533489 -0.282282,-1.033496 -0.359913,-1.111126 -0.192688,-0.192689 -2.78258,0.44485 -2.957612,0.728058 -0.07724,0.124979 -0.02604,0.440438 0.113793,0.701019 0.139828,0.26058 0.318718,0.682142 0.397534,0.936804 0.173355,0.560123 0.927338,0.59167 2.130102,0.08912 z m 3.997936,-1.272474 c -0.226533,-0.323421 -0.411878,-1.033207 -0.411878,-1.577302 0,-0.919293 0.07018,-1.008148 0.992187,-1.256265 2.126306,-0.572196 10.943648,-2.399228 11.578788,-2.399228 0.7444,0 1.187357,0.792108 1.187357,2.12327 0,0.88393 0.559353,0.680819 -6.884798,2.500007 -2.695233,0.658656 -5.159028,1.197556 -5.475101,1.197556 -0.316073,0 -0.760023,-0.264617 -0.986555,-0.588038 z m 4.381256,-1.39457 c 1.572486,-0.508351 3.965055,-1.11326 5.31682,-1.344243 2.683112,-0.458478 2.95953,-0.589831 2.694524,-1.280431 -0.122476,-0.319165 -0.350586,-0.414193 -0.73628,-0.306724 -0.307353,0.08564 -2.821011,0.702823 -5.585907,1.371518 -2.764896,0.668693 -5.166669,1.255777 -5.337275,1.304629 -0.445675,0.127618 -0.104968,1.179526 0.382043,1.179526 0.223854,0 1.693588,-0.415924 3.266075,-0.924275 z M 38.581029,81.817044 c -0.417084,-0.309215 -1.478252,-2.988011 -1.478252,-3.731677 0,-0.259564 0.648976,-0.579982 1.918229,-0.947083 1.055026,-0.305142 2.061239,-0.60187 2.236029,-0.659397 0.585974,-0.192856 1.364653,0.782465 1.78199,2.232001 0.541398,1.880438 0.560112,1.801952 -0.539187,2.261269 -2.077068,0.867854 -3.479879,1.170297 -3.918809,0.844887 z m 2.836666,-1.364106 c 1.05249,-0.439758 1.132854,-0.66799 0.686282,-1.949028 -0.327631,-0.939841 -0.369171,-0.948713 -2.468304,-0.527147 -1.510733,0.303399 -1.522696,0.313146 -1.363196,1.110649 0.0885,0.44251 0.347395,1.089171 0.575317,1.437024 0.448524,0.684533 0.782718,0.675235 2.569901,-0.0715 z m 3.39612,-1.65778 c -0.492663,-1.980144 -0.507453,-2.167678 -0.191627,-2.429791 0.821155,-0.681498 11.332349,-2.897655 12.18736,-2.569556 0.188566,0.07236 0.553408,0.682907 0.81076,1.356773 0.667147,1.746904 0.382601,1.946699 -3.628608,2.547839 -1.794585,0.268946 -4.410127,0.848526 -5.812315,1.287957 -1.402188,0.439431 -2.677521,0.798965 -2.834073,0.798965 -0.156552,0 -0.395725,-0.446484 -0.531497,-0.992187 z m 2.827582,-0.577689 c 0.713786,-0.281348 2.891085,-0.831579 4.83844,-1.222735 3.621572,-0.727449 4.399512,-1.073824 4.109449,-1.829718 -0.189053,-0.492663 -0.452193,-0.463791 -5.066718,0.555921 -3.284664,0.725841 -5.711989,1.408408 -6.045554,1.700018 -0.32617,0.285146 0.06275,1.308057 0.497339,1.308057 0.203087,0 0.953257,-0.230194 1.667044,-0.511543 z"
       id="path4502"
       inkscape:connector-curvature="0" />
    <text
       xml:space="preserve"
       style="font-style:normal;font-weight:normal;font-size:27.94536018px;line-height:1.25;font-family:sans-serif;letter-spacing:0px;word-spacing:0px;fill:#000000;fill-opacity:1;stroke:none;stroke-width:0.69863403"
       x="83.501625"
       y="77.13472"
       id="text4500"
       transform="scale(0.78260201,1.2777887)"><tspan
         sodipodi:role="line"
         id="tspan4498"
         x="83.501625"
         y="77.13472"
         style="font-style:normal;font-variant:normal;font-weight:normal;font-stretch:normal;font-size:27.94552612px;font-family:Haettenschweiler;-inkscape-font-specification:'Haettenschweiler, Normal';font-variant-ligatures:normal;font-variant-caps:normal;font-variant-numeric:normal;font-feature-settings:normal;text-align:start;writing-mode:lr-tb;text-anchor:start;stroke-width:0.69863403">RecipeCreator</tspan></text>
  </g>
</svg>
